<svg width="22" height="22" viewBox="0 0 22 22" fill="none" xmlns="http://www.w3.org/2000/svg">
<path d="M8.16024 18.9475C7.98623 18.9475 7.81222 18.8834 7.67484 18.7459C7.40925 18.48 7.40925 18.04 7.67484 17.7742L13.6462 11.7975C14.0858 11.3575 14.0858 10.6425 13.6462 10.2025L7.67484 4.22585C7.40925 3.96002 7.40925 3.52002 7.67484 3.25418C7.94044 2.98835 8.38005 2.98835 8.64564 3.25418L14.617 9.23085C15.0841 9.69835 15.3496 10.3309 15.3496 11C15.3496 11.6692 15.0932 12.3017 14.617 12.7692L8.64564 18.7459C8.50826 18.8742 8.33425 18.9475 8.16024 18.9475Z" fill="#0A3D8D"/>
</svg>
