<svg width="24" height="24" viewBox="0 0 24 24" fill="none" xmlns="http://www.w3.org/2000/svg">
<path d="M15.9857 22.75H7.99283C3.37696 22.75 2.51773 20.6 2.29792 18.51L1.54859 10.5C1.43869 9.45001 1.40872 7.90001 2.44779 6.74001C3.34699 5.74001 4.83565 5.26001 6.99372 5.26001H16.9848C19.1528 5.26001 20.6415 5.75001 21.5307 6.74001C22.5698 7.90001 22.5398 9.45001 22.4299 10.51L21.6806 18.5C21.4608 20.6 20.6016 22.75 15.9857 22.75ZM6.99372 6.75001C5.30523 6.75001 4.14627 7.08001 3.5568 7.74001C3.06724 8.28001 2.90738 9.11001 3.03726 10.35L3.78659 18.36C3.95644 19.94 4.38606 21.25 7.99283 21.25H15.9857C19.5825 21.25 20.0221 19.94 20.1919 18.35L20.9412 10.36C21.0711 9.11001 20.9113 8.28001 20.4217 7.74001C19.8322 7.08001 18.6733 6.75001 16.9848 6.75001H6.99372Z" fill="#0A3D8D"/>
<path d="M15.9857 6.75C15.5761 6.75 15.2364 6.41 15.2364 6V5.2C15.2364 3.42 15.2364 2.75 12.7886 2.75H11.19C8.74219 2.75 8.74219 3.42 8.74219 5.2V6C8.74219 6.41 8.40249 6.75 7.99286 6.75C7.58323 6.75 7.24353 6.41 7.24353 6V5.2C7.24353 3.44 7.24353 1.25 11.19 1.25H12.7886C16.735 1.25 16.735 3.44 16.735 5.2V6C16.735 6.41 16.3953 6.75 15.9857 6.75Z" fill="#0A3D8D"/>
<path d="M11.9892 16.75C9.2417 16.75 9.2417 15.05 9.2417 14.03V13C9.2417 11.59 9.5814 11.25 10.9901 11.25H12.9883C14.3971 11.25 14.7368 11.59 14.7368 13V14C14.7368 15.04 14.7368 16.75 11.9892 16.75ZM10.7404 12.75C10.7404 12.83 10.7404 12.92 10.7404 13V14.03C10.7404 15.06 10.7404 15.25 11.9892 15.25C13.2381 15.25 13.2381 15.09 13.2381 14.02V13C13.2381 12.92 13.2381 12.83 13.2381 12.75C13.1582 12.75 13.0683 12.75 12.9883 12.75H10.9901C10.9102 12.75 10.8203 12.75 10.7404 12.75Z" fill="#0A3D8D"/>
<path d="M13.9875 14.77C13.6178 14.77 13.2881 14.49 13.2482 14.11C13.1982 13.7 13.4879 13.32 13.8976 13.27C16.5352 12.94 19.063 11.94 21.191 10.39C21.5208 10.14 21.9903 10.22 22.2401 10.56C22.4799 10.89 22.41 11.36 22.0703 11.61C19.7324 13.31 16.9748 14.4 14.0774 14.77C14.0474 14.77 14.0175 14.77 13.9875 14.77Z" fill="#0A3D8D"/>
<path d="M9.99101 14.78C9.96104 14.78 9.93106 14.78 9.90109 14.78C7.16354 14.47 4.49592 13.47 2.18799 11.89C1.84829 11.66 1.75837 11.19 1.98817 10.85C2.21796 10.51 2.68754 10.42 3.02724 10.65C5.13535 12.09 7.56318 13 10.0609 13.29C10.4706 13.34 10.7703 13.71 10.7204 14.12C10.6904 14.5 10.3707 14.78 9.99101 14.78Z" fill="#0A3D8D"/>
</svg>
