<svg width="52" height="53" viewBox="0 0 52 53" fill="none" xmlns="http://www.w3.org/2000/svg">
<path d="M45.4089 8.70589L45.2544 8.53335L44.8268 8.05438C40.5409 3.56593 34.8358 0.764191 28.6671 0.138435L28.613 0.133285C28.4224 0.115259 28.2189 0.0946578 28.0154 0.079207L27.9278 0.0740566C27.7372 0.061181 27.5441 0.0457304 27.3535 0.038005L27.1886 0.0328546C27.0109 0.0251293 26.8461 0.0174039 26.6812 0.0122536C26.5782 0.0096785 26.4726 0.00967838 26.367 0.00710325L25.9832 0.00195312L25.6381 0.00710325C25.5325 0.00710325 25.4269 0.0096785 25.3238 0.0122536C25.159 0.0174039 24.9967 0.0225541 24.8345 0.0302794L24.649 0.038005C24.4584 0.0483055 24.2678 0.061181 24.0772 0.0740566L23.9948 0.079207C23.7836 0.0946578 23.5801 0.115259 23.3766 0.133285L23.3328 0.138435C17.1023 0.769341 11.3431 3.62001 7.0469 8.18829L6.59358 8.70331C2.34372 13.4724 0.00244141 19.6193 0.00244141 26.0133C0.00244141 31.9516 1.95222 37.5422 5.64058 42.1826L6.1995 42.8856C10.4159 47.8324 16.2343 50.9921 22.6838 51.811C22.895 51.8367 23.0882 51.8599 23.2788 51.8779L23.4204 51.8934C23.5878 51.9114 23.7578 51.9243 23.9278 51.9397L24.1468 51.9552C24.2987 51.9655 24.4507 51.9758 24.6052 51.9835L25.0045 52.0015C25.1023 52.0067 25.2002 52.0092 25.2981 52.0118C25.4887 52.017 25.6793 52.0195 25.8673 52.0195L26.0193 52.0221L26.1352 52.0195C26.3284 52.0195 26.5164 52.017 26.707 52.0118C26.8048 52.0092 26.9027 52.0067 27.0006 52.0015L27.3973 51.9835C27.5518 51.9758 27.7038 51.9655 27.8583 51.9552L28.0721 51.9397C28.2446 51.9243 28.4146 51.9114 28.5846 51.8934L28.7263 51.8779C28.9169 51.8573 29.1075 51.8367 29.2981 51.8135L29.3367 51.8084C35.8429 50.9818 41.7231 47.7603 45.9498 42.713L46.3619 42.1851C46.3928 42.1465 46.4211 42.1053 46.452 42.0667C50.0812 37.4495 52 31.9052 52 26.0159C52.0052 19.6193 49.6639 13.475 45.4089 8.70589ZM27.6857 22.0245V25.7198L26.1146 25.3052L25.9497 25.2614H25.9472L24.2086 25.7198V22.0245L25.9472 21.5661H25.9497L26.009 21.5815L27.6857 22.0245ZM32.2962 26.9043L28.8267 26.0159V22.3206L32.2962 23.209V26.9043ZM23.0624 26.0159L19.593 26.9043V23.209L23.0624 22.3206V26.0159ZM38.501 35.3636C37.3857 36.852 36.0103 38.1448 34.434 39.1619L34.2047 34.3104L35.2582 33.0357L36.2498 31.8357V29.3661L33.2569 28.5756V23.2991L35.0753 22.8124C35.1938 22.7815 35.2299 22.6296 35.1371 22.5472L30.4803 18.4244L26.6426 15.0253C26.2408 14.6673 25.6355 14.6673 25.2311 15.0253L16.7469 22.5446C16.6516 22.627 16.6902 22.7815 16.8138 22.8124L18.5962 23.2451V28.5679L15.763 29.2889V32.4151C16.3322 32.9687 17.2414 34.313 17.2414 34.313L17.0379 38.7963C12.9812 35.9301 10.3824 31.1996 10.3824 26.0133C10.3824 18.6304 15.6161 12.1978 22.8332 10.7042L22.8976 10.6913C23.1371 10.6424 23.3792 10.6012 23.6213 10.5626C23.8943 10.5214 24.1442 10.4879 24.3966 10.4621L24.4378 10.457C24.6902 10.4312 24.9529 10.4106 25.2131 10.3977C25.7205 10.372 26.2537 10.372 26.7585 10.3952L26.8924 10.4029C27.1217 10.4158 27.3535 10.4338 27.5853 10.457L27.6291 10.4621C27.8866 10.4879 28.1287 10.5188 28.3683 10.5574L28.4069 10.5626C28.6284 10.596 28.8577 10.6372 29.0869 10.6836L29.1693 10.699C32.0103 11.2862 34.5422 12.6381 36.5744 14.5128C39.7064 17.4021 41.6356 21.53 41.6356 26.0133C41.6304 29.4717 40.4739 32.7267 38.501 35.3636Z" fill="#0C1023"/>
<mask id="mask0_250_8620" style="mask-type:luminance" maskUnits="userSpaceOnUse" x="0" y="0" width="52" height="53">
<path d="M19.5957 23.2096L23.0651 22.3212V26.0191L19.5957 26.9049V23.2096ZM28.8269 26.0191V22.3212L32.2963 23.2096V26.9049L28.8269 26.0191ZM24.2061 22.0251L25.9421 21.5667H25.9473L26.0065 21.5821L27.6859 22.0251V25.7204L26.1147 25.3058L25.9499 25.262H25.9447L24.2087 25.7204V22.0251H24.2061ZM10.3774 26.0139C10.3774 18.6311 15.6111 12.1984 22.8282 10.7048L22.8925 10.6919C23.1321 10.643 23.3716 10.5992 23.6163 10.5632C23.8893 10.522 24.1392 10.4885 24.3916 10.4627L24.4328 10.4576C24.6852 10.4318 24.9505 10.4112 25.2081 10.3984C25.7181 10.3726 26.2486 10.3726 26.7535 10.3958L26.89 10.4035C27.1192 10.4164 27.351 10.4344 27.5828 10.4576L27.6266 10.4627C27.8842 10.4885 28.1263 10.5194 28.3633 10.558L28.4019 10.5632C28.6208 10.5967 28.8526 10.6379 29.0819 10.6842L29.1643 10.6997C32.0053 11.2868 34.5397 12.6387 36.5693 14.5134C39.6988 17.4027 41.6305 21.5306 41.6305 26.0139C41.6305 29.4723 40.4741 32.7299 38.5011 35.3668C37.3858 36.8552 36.0104 38.148 34.4341 39.1651L34.2049 34.3136L35.2558 33.0389L36.2474 31.8389V29.3719L33.2519 28.5813V23.3049L35.0703 22.8182C35.1888 22.7847 35.2248 22.6328 35.1321 22.5504L30.4779 18.425L26.6401 15.0259C26.2358 14.6679 25.6305 14.6679 25.2287 15.0259L16.7444 22.5452C16.6517 22.6277 16.6878 22.7822 16.8114 22.8131L18.5912 23.2457V28.571L15.7579 29.2921V32.4157C16.3272 32.9694 17.2364 34.3136 17.2364 34.3136L17.0329 38.7969C12.9762 35.9282 10.3774 31.2003 10.3774 26.0139ZM25.6408 0.0103005C25.5352 0.0103005 25.4296 0.0128757 25.3265 0.0154509C25.1617 0.018026 24.9994 0.0283264 24.8372 0.0334767L24.6517 0.041202C24.4637 0.0489274 24.2731 0.0643783 24.0825 0.0772539L24.0001 0.082404C23.7889 0.0978548 23.5854 0.115881 23.3819 0.139057L23.3381 0.141632C17.1076 0.772539 11.3484 3.62321 7.04961 8.19148L6.59629 8.70651C2.34386 13.4731 0 19.6199 0 26.0139C0 31.9522 1.94978 37.5428 5.63814 42.1832L6.19706 42.8862C10.4134 47.833 16.2319 50.9927 22.6813 51.8116C22.8925 51.8373 23.0857 51.8605 23.2763 51.8785L23.418 51.8914C23.5854 51.9094 23.7554 51.9249 23.9254 51.9352L24.1443 51.9532C24.2963 51.9635 24.4482 51.9738 24.6028 51.9815L24.9994 51.9996C25.0973 52.0047 25.1952 52.0073 25.2931 52.0099C25.4837 52.015 25.6717 52.0176 25.8623 52.0176L26.0143 52.0202L26.1302 52.0176C26.3233 52.0176 26.5114 52.015 26.702 52.0099C26.7998 52.0073 26.8977 52.0047 26.9956 51.9996L27.3922 51.9815C27.5468 51.9738 27.7013 51.9635 27.8533 51.9532L28.0696 51.9378C28.2422 51.9249 28.4122 51.9094 28.5822 51.8914L28.7239 51.8785C28.9145 51.8605 29.1051 51.8373 29.2957 51.8116L29.3343 51.8064C35.8404 50.9798 41.7207 47.7583 45.9474 42.7111L46.3595 42.1832C46.3904 42.1446 46.4187 42.1034 46.4496 42.0647C50.0787 37.4475 51.9976 31.9007 51.9976 26.0139C51.9976 19.6225 49.6537 13.4756 45.4013 8.70651L45.2494 8.53398L44.8218 8.055C40.5359 3.56655 34.8308 0.764813 28.6595 0.139057L28.6054 0.133907C28.4148 0.115881 28.2113 0.0952799 28.0052 0.0798291L27.9177 0.0746787C27.7271 0.0618031 27.5339 0.0463525 27.3433 0.0386271L27.1785 0.0309015C27.0007 0.0231761 26.8359 0.0154508 26.671 0.0103005C26.568 0.00772538 26.4624 0.00515037 26.3568 0.00515037L25.9756 0L25.6408 0.0103005Z" fill="white"/>
</mask>
<g mask="url(#mask0_250_8620)">
<path d="M61.9166 34.5818L25.9448 25.2572L26.6918 21.6624L47.9179 -4.64258L61.9166 34.5818Z" fill="#F6921E"/>
</g>
</svg>
