<svg width="178" height="49" viewBox="0 0 178 49" fill="none" xmlns="http://www.w3.org/2000/svg">
<path d="M42.866 8.43418L42.7213 8.27321L42.321 7.82634C38.3086 3.63871 32.9676 1.02475 27.1926 0.440933L27.142 0.436128C26.9635 0.41931 26.773 0.40009 26.5826 0.385675L26.5006 0.38087C26.3221 0.368857 26.1413 0.354442 25.9629 0.347234L25.8085 0.342429C25.6422 0.335221 25.4878 0.328014 25.3335 0.323209C25.2371 0.320806 25.1382 0.320806 25.0393 0.318404L24.68 0.313599L24.3569 0.318404C24.2581 0.318404 24.1592 0.320806 24.0628 0.323209C23.9084 0.328014 23.7565 0.332819 23.6046 0.340026L23.431 0.347234C23.2526 0.356844 23.0741 0.368857 22.8957 0.38087L22.8185 0.385675C22.6208 0.40009 22.4303 0.41931 22.2398 0.436128L22.1988 0.440933C16.3659 1.02956 10.9743 3.68916 6.95228 7.95127L6.5279 8.43178C2.54928 12.8813 0.357422 18.6161 0.357422 24.5816C0.357422 30.1219 2.18276 35.3378 5.63572 39.6672L6.15897 40.3231C10.1062 44.9383 15.5533 47.8863 21.5912 48.6503C21.7889 48.6743 21.9698 48.6959 22.1482 48.7127L22.2808 48.7271C22.4376 48.744 22.5967 48.756 22.7558 48.7704L22.9608 48.7848C23.1031 48.7944 23.2453 48.804 23.39 48.8112L23.7638 48.8281C23.8554 48.8329 23.947 48.8353 24.0386 48.8377C24.2171 48.8425 24.3955 48.8449 24.5715 48.8449L24.7138 48.8473L24.8223 48.8449C25.0032 48.8449 25.1792 48.8425 25.3576 48.8377C25.4492 48.8353 25.5409 48.8329 25.6325 48.8281L26.0038 48.8112C26.1485 48.804 26.2908 48.7944 26.4355 48.7848L26.6356 48.7704C26.7972 48.756 26.9563 48.744 27.1154 48.7271L27.2481 48.7127C27.4265 48.6935 27.6049 48.6743 27.7834 48.6527L27.8195 48.6479C33.9104 47.8766 39.4154 44.8711 43.3723 40.1621L43.7581 39.6696C43.7871 39.6335 43.8136 39.5951 43.8425 39.5591C47.24 35.2513 49.0364 30.0786 49.0364 24.584C49.0413 18.6161 46.8494 12.8837 42.866 8.43418ZM26.2739 20.8601V24.3078L24.803 23.9209L24.6487 23.8801H24.6463L23.0187 24.3078V20.8601L24.6463 20.4325H24.6487L24.7042 20.4469L26.2739 20.8601ZM30.5901 25.4129L27.3421 24.584V21.1364L30.5901 21.9653V25.4129ZM21.9457 24.584L18.6977 25.4129V21.9653L21.9457 21.1364V24.584ZM36.3989 33.3053C35.3548 34.6939 34.0672 35.9 32.5915 36.849L32.3769 32.3226L33.3631 31.1334L34.2914 30.0138V27.7097L31.4895 26.9722V22.0494L33.1919 21.5953C33.3028 21.5665 33.3366 21.4247 33.2498 21.3478L28.8902 17.5014L25.2973 14.33C24.9212 13.9961 24.3545 13.9961 23.976 14.33L16.0332 21.3454C15.944 21.4223 15.9801 21.5665 16.0959 21.5953L17.7645 21.9989V26.965L15.1121 27.6377V30.5543C15.645 31.0709 16.4961 32.325 16.4961 32.325L16.3057 36.5078C12.5079 33.8338 10.0749 29.4204 10.0749 24.5816C10.0749 17.6936 14.9746 11.692 21.731 10.2985L21.7913 10.2865C22.0156 10.2409 22.2422 10.2024 22.4689 10.1664C22.7245 10.128 22.9584 10.0967 23.1947 10.0727L23.2333 10.0679C23.4696 10.0439 23.7155 10.0247 23.9591 10.0126C24.4341 9.98862 24.9332 9.98862 25.4058 10.0102L25.5312 10.0175C25.7458 10.0295 25.9629 10.0463 26.1799 10.0679L26.2209 10.0727C26.462 10.0967 26.6887 10.1256 26.9129 10.1616L26.9491 10.1664C27.1564 10.1976 27.371 10.2361 27.5856 10.2793L27.6628 10.2937C30.3225 10.8415 32.6927 12.1029 34.5952 13.8519C37.5274 16.5476 39.3334 20.3988 39.3334 24.5816C39.3286 27.8082 38.2459 30.8451 36.3989 33.3053Z" fill="white"/>
<mask id="mask0_251_10088" style="mask-type:luminance" maskUnits="userSpaceOnUse" x="0" y="0" width="50" height="49">
<path d="M18.7002 21.9654L21.9482 21.1365V24.5865L18.7002 25.413V21.9654ZM27.3422 24.5865V21.1365L30.5902 21.9654V25.413L27.3422 24.5865ZM23.0164 20.8602L24.6416 20.4325H24.6464L24.7018 20.447L26.274 20.8602V24.3078L24.8031 23.921L24.6488 23.8802H24.644L23.0188 24.3078V20.8602H23.0164ZM10.0702 24.5817C10.0702 17.6936 14.9699 11.6921 21.7263 10.2986L21.7866 10.2866C22.0108 10.241 22.2351 10.2001 22.4642 10.1665C22.7198 10.1281 22.9537 10.0968 23.19 10.0728L23.2285 10.068C23.4649 10.044 23.7132 10.0247 23.9543 10.0127C24.4318 9.98871 24.9285 9.98871 25.4011 10.0103L25.5289 10.0175C25.7435 10.0295 25.9605 10.0464 26.1775 10.068L26.2185 10.0728C26.4597 10.0968 26.6863 10.1257 26.9082 10.1617L26.9443 10.1665C27.1493 10.1977 27.3663 10.2362 27.5809 10.2794L27.6581 10.2938C30.3177 10.8416 32.6904 12.1029 34.5905 13.852C37.5202 16.5476 39.3287 20.3989 39.3287 24.5817C39.3287 27.8083 38.246 30.8475 36.399 33.3078C35.3549 34.6964 34.0673 35.9025 32.5916 36.8515L32.377 32.3251L33.3608 31.1359L34.2891 30.0163V27.7146L31.4848 26.9771V22.0543L33.1872 21.6002C33.2981 21.5689 33.3318 21.4272 33.245 21.3503L28.8878 17.5014L25.295 14.3301C24.9164 13.9961 24.3498 13.9961 23.9736 14.3301L16.0309 21.3455C15.9441 21.4224 15.9778 21.5665 16.0936 21.5954L17.7598 21.999V26.9674L15.1073 27.6402V30.5544C15.6402 31.071 16.4914 32.3251 16.4914 32.3251L16.3009 36.5079C12.5032 33.8315 10.0702 29.4204 10.0702 24.5817ZM24.3594 0.320889C24.2606 0.320889 24.1617 0.323292 24.0653 0.325695C23.9109 0.328097 23.759 0.337707 23.6071 0.342512L23.4335 0.34972C23.2575 0.356927 23.079 0.371343 22.9006 0.383356L22.8235 0.38816C22.6257 0.402576 22.4352 0.419394 22.2447 0.441016L22.2038 0.443419C16.3709 1.03204 10.9792 3.69165 6.95479 7.95376L6.5304 8.43426C2.54937 12.8814 0.355103 18.6162 0.355103 24.5817C0.355103 30.122 2.18044 35.3379 5.6334 39.6673L6.15665 40.3232C10.1039 44.9384 15.551 47.8864 21.5889 48.6504C21.7866 48.6744 21.9674 48.696 22.1459 48.7128L22.2785 48.7248C22.4352 48.7417 22.5944 48.7561 22.7535 48.7657L22.9585 48.7825C23.1007 48.7921 23.243 48.8017 23.3877 48.8089L23.759 48.8257C23.8507 48.8306 23.9423 48.833 24.0339 48.8354C24.2124 48.8402 24.3884 48.8426 24.5668 48.8426L24.7091 48.845L24.8176 48.8426C24.9984 48.8426 25.1745 48.8402 25.3529 48.8354C25.4445 48.833 25.5361 48.8306 25.6278 48.8257L25.9991 48.8089C26.1438 48.8017 26.2885 48.7921 26.4307 48.7825L26.6333 48.7681C26.7948 48.7561 26.954 48.7417 27.1131 48.7248L27.2457 48.7128C27.4242 48.696 27.6026 48.6744 27.7811 48.6504L27.8172 48.6456C33.9081 47.8743 39.4131 44.8688 43.37 40.1598L43.7558 39.6673C43.7847 39.6312 43.8113 39.5928 43.8402 39.5568C47.2377 35.249 49.0341 30.0739 49.0341 24.5817C49.0341 18.6186 46.8398 12.8838 42.8588 8.43426L42.7165 8.27329L42.3163 7.82642C38.3039 3.6388 32.9629 1.02483 27.1855 0.441016L27.1348 0.436211C26.9564 0.419394 26.7659 0.400173 26.573 0.385758L26.491 0.380953C26.3126 0.36894 26.1317 0.354525 25.9533 0.347318L25.799 0.34011C25.6326 0.332902 25.4783 0.325695 25.324 0.320889C25.2275 0.318487 25.1286 0.316084 25.0298 0.316084L24.6729 0.311279L24.3594 0.320889Z" fill="white"/>
</mask>
<g mask="url(#mask0_251_10088)">
<path d="M58.3201 32.575L24.644 23.8754L25.3433 20.5214L45.2147 -4.02051L58.3201 32.575Z" fill="#F6921E"/>
</g>
<path d="M79.0233 13.8976H75.035V25.9031H77.7284V22.8831H79.0233C79.1873 22.8831 79.3416 22.8831 79.4887 22.8615L79.6888 22.835L81.4732 25.9031H84.468L82.158 22.1503L82.4473 22.0013C83.8 21.3022 84.5138 20.0673 84.5138 18.4288C84.5138 15.5505 82.5124 13.8976 79.0233 13.8976ZM78.951 20.7088H77.7284V16.1199H78.951C80.1518 16.1199 81.748 16.3602 81.748 18.4264C81.748 20.4493 80.2531 20.7088 78.951 20.7088Z" fill="white"/>
<path d="M88.6517 21.1821V13.8976H85.9583V21.2301C85.9583 24.2934 87.8921 26.1217 91.1329 26.1217C94.3447 26.1217 96.2617 24.2934 96.2617 21.2301V13.8976H93.5683V21.1797C93.5683 22.9191 92.7412 23.7984 91.1088 23.7984C89.4787 23.8008 88.6517 22.9191 88.6517 21.1821Z" fill="white"/>
<path d="M101.935 13.8976H98.0918V25.9031H100.785V23.1738H101.935C105.437 23.1738 107.525 21.444 107.525 18.5465C107.525 15.5938 105.49 13.8976 101.935 13.8976ZM101.863 20.9514H100.788V16.1488H101.863C103.794 16.1488 104.735 16.9344 104.735 18.5489C104.735 20.7016 103.095 20.9514 101.863 20.9514Z" fill="white"/>
<path d="M115.113 26.1217C118.824 26.1217 121.621 23.4477 121.621 19.9016C121.621 16.3554 118.822 13.6814 115.113 13.6814C111.402 13.6814 108.603 16.3554 108.603 19.9016C108.605 23.4477 111.402 26.1217 115.113 26.1217ZM115.113 15.9782C117.317 15.9782 118.858 17.5903 118.858 19.9016C118.858 22.2104 117.317 23.8249 115.113 23.8249C112.907 23.8249 111.368 22.2104 111.368 19.9016C111.368 17.5927 112.909 15.9782 115.113 15.9782Z" fill="white"/>
<path d="M143.778 13.6814C140.067 13.6814 137.268 16.3554 137.268 19.9016C137.268 23.4477 140.065 26.1217 143.778 26.1217C147.489 26.1217 150.289 23.4477 150.289 19.9016C150.289 16.3554 147.489 13.6814 143.778 13.6814ZM143.778 23.8249C141.574 23.8249 140.034 22.2104 140.034 19.8992C140.034 17.5903 141.572 15.9758 143.778 15.9758C145.982 15.9758 147.521 17.5879 147.521 19.8992C147.521 22.2128 145.982 23.8249 143.778 23.8249Z" fill="white"/>
<path d="M159.288 22.0013C160.638 21.3022 161.354 20.0673 161.354 18.4288C161.354 15.5481 159.353 13.8976 155.864 13.8976H151.875V25.9031H154.566V22.8831H155.861C156.025 22.8831 156.18 22.8831 156.327 22.8615L156.529 22.835L158.314 25.9031H161.308L158.998 22.1503L159.288 22.0013ZM155.791 20.7088H154.569V16.1199H155.791C156.992 16.1199 158.591 16.3602 158.591 18.4264C158.591 20.4493 157.094 20.7088 155.791 20.7088Z" fill="white"/>
<path d="M166.541 13.8976H163.847V25.9031H166.541V13.8976Z" fill="white"/>
<path d="M171.99 13.8976H169.297V25.9031H177.565V23.6567H171.99V13.8976Z" fill="white"/>
<path d="M132.033 23.7336C129.897 23.7336 128.459 22.1575 128.459 19.8103C128.459 17.463 129.868 15.8869 131.963 15.8869C132.959 15.8869 133.745 16.1968 134.386 16.8407L136.559 15.4761C135.452 14.2099 133.943 13.5901 131.963 13.5901C128.274 13.5901 125.694 16.1488 125.694 19.8103C125.694 23.5318 128.252 26.0304 132.057 26.0304C134.196 26.0304 135.949 25.2328 137.003 23.8129L134.828 22.5708C134.283 23.2002 133.417 23.7336 132.033 23.7336Z" fill="white"/>
<path d="M73.7691 19.9785C73.7764 19.6806 73.774 19.3827 73.7547 19.0896C73.7474 18.9478 73.7402 18.8109 73.7306 18.7028H72.4454V18.7052H68.2979V20.8819H71.3964C71.3699 21.1245 71.2879 21.3816 71.2108 21.5906C71.2035 21.6098 71.1963 21.6291 71.1891 21.6483C71.136 21.7828 71.0806 21.9126 71.0131 22.0399C71.0058 22.0615 70.9938 22.0807 70.9865 22.1024C70.4006 23.1859 69.3059 23.9379 68.0303 24.0364C67.9146 24.0436 67.8036 24.0556 67.6855 24.0556C65.5587 24.0556 64.0155 22.3859 64.0155 20.0842C64.0155 17.8114 65.5491 16.1609 67.6614 16.1609C68.6428 16.1609 69.4288 16.4348 70.0485 16.9849L72.2235 15.6203C71.124 14.4407 69.641 13.8665 67.7096 13.8665C64.0251 13.8665 61.2498 16.5405 61.2498 20.0866C61.2498 23.6328 64.0179 26.3068 67.6855 26.3068C69.6169 26.3068 71.206 25.6893 72.279 24.5193C73.2025 23.5126 73.7065 21.7852 73.7691 20.0602H73.7716V19.9785" fill="white"/>
<path d="M61.4089 33.94L61.8647 33.3946C62.1805 33.6541 62.5109 33.8199 62.9136 33.8199C63.2295 33.8199 63.4199 33.695 63.4199 33.4907V33.4811C63.4199 33.2865 63.2994 33.1856 62.7134 33.0367C62.0069 32.8565 61.5512 32.6619 61.5512 31.9675V31.9579C61.5512 31.3236 62.0624 30.9032 62.7786 30.9032C63.2897 30.9032 63.7262 31.0642 64.083 31.3477L63.6828 31.9267C63.3717 31.7129 63.0655 31.5831 62.7713 31.5831C62.4747 31.5831 62.3204 31.7177 62.3204 31.8882V31.8978C62.3204 32.1285 62.4699 32.203 63.0775 32.3567C63.7889 32.5417 64.1916 32.7964 64.1916 33.4066V33.4163C64.1916 34.1106 63.6611 34.4998 62.9039 34.4998C62.3662 34.4998 61.8285 34.3148 61.4089 33.94Z" fill="white"/>
<path d="M64.5026 32.7095V32.6999C64.5026 31.7052 65.2886 30.8907 66.3737 30.8907C67.4564 30.8907 68.2328 31.6956 68.2328 32.6878V32.6975C68.2328 33.6921 67.4467 34.5066 66.3617 34.5066C65.279 34.509 64.5026 33.7041 64.5026 32.7095ZM67.425 32.7095V32.6999C67.425 32.0992 66.9838 31.6019 66.3617 31.6019C65.7396 31.6019 65.3079 32.092 65.3079 32.6903V32.6999C65.3079 33.2981 65.7492 33.7978 66.3713 33.7978C66.9934 33.8002 67.425 33.3101 67.425 32.7095Z" fill="white"/>
<path d="M68.5631 32.7095V32.6999C68.5631 31.7052 69.3154 30.8907 70.3933 30.8907C71.054 30.8907 71.4518 31.1094 71.7773 31.4313L71.2855 31.9959C71.0154 31.7509 70.7381 31.6019 70.3885 31.6019C69.7977 31.6019 69.3709 32.092 69.3709 32.6903V32.6999C69.3709 33.2981 69.788 33.7978 70.3885 33.7978C70.7887 33.7978 71.0347 33.6369 71.312 33.3894L71.8039 33.8843C71.4422 34.2687 71.0419 34.509 70.3643 34.509C69.3299 34.509 68.5631 33.7137 68.5631 32.7095Z" fill="white"/>
<path d="M72.2524 30.9532H73.0241V34.4489H72.2524V30.9532Z" fill="white"/>
<path d="M73.7017 30.9532H76.3492V31.6356H74.4684V32.3443H76.1226V33.029H74.4684V33.7642H76.3734V34.4489H73.7017V30.9532Z" fill="white"/>
<path d="M76.8605 30.9532H78.2301C79.332 30.9532 80.094 31.7076 80.094 32.6927V32.7023C80.094 33.6873 79.332 34.4513 78.2301 34.4513H76.8605V30.9532ZM78.2301 33.7546C78.8618 33.7546 79.2886 33.3294 79.2886 32.7095V32.6999C79.2886 32.08 78.8618 31.6452 78.2301 31.6452H77.6345V33.7522H78.2301V33.7546Z" fill="white"/>
<path d="M81.7842 30.9268H82.4955L84.0002 34.4489H83.1924L82.8717 33.6657H81.3888L81.0681 34.4489H80.282L81.7842 30.9268ZM82.5968 32.9857L82.1314 31.8517L81.6661 32.9857H82.5968Z" fill="white"/>
<path d="M84.3427 30.9532H85.7123C86.8142 30.9532 87.5762 31.7076 87.5762 32.6927V32.7023C87.5762 33.6873 86.8142 34.4513 85.7123 34.4513H84.3427V30.9532ZM85.7098 33.7546C86.3416 33.7546 86.7684 33.3294 86.7684 32.7095V32.6999C86.7684 32.08 86.3416 31.6452 85.7098 31.6452H85.1143V33.7522H85.7098V33.7546Z" fill="white"/>
<path d="M90.5685 30.9268H91.2798L92.7845 34.4489H91.9767L91.656 33.6657H90.1731L89.8524 34.4489H89.0663L90.5685 30.9268ZM91.3811 32.9857L90.9157 31.8517L90.4504 32.9857H91.3811Z" fill="white"/>
<path d="M93.1268 30.9532H94.4964C95.5984 30.9532 96.3604 31.7076 96.3604 32.6927V32.7023C96.3604 33.6873 95.5984 34.4513 94.4964 34.4513H93.1268V30.9532ZM94.494 33.7546C95.1258 33.7546 95.5526 33.3294 95.5526 32.7095V32.6999C95.5526 32.08 95.1258 31.6452 94.494 31.6452H93.8984V33.7522H94.494V33.7546Z" fill="white"/>
<path d="M96.8475 30.9532H97.6794L98.6029 32.4308L99.5265 30.9532H100.358V34.4489H99.5916V32.1665L98.6029 33.6609H98.5837L97.6071 32.1833V34.4513H96.8499V30.9532H96.8475Z" fill="white"/>
<path d="M101.034 30.9532H101.805V34.4489H101.034V30.9532Z" fill="white"/>
<path d="M102.483 30.9532H103.194L104.838 33.1059V30.9532H105.6V34.4489H104.945L103.245 32.2266V34.4489H102.483V30.9532Z" fill="white"/>
<path d="M106.278 30.9532H107.05V34.4489H106.278V30.9532Z" fill="white"/>
<path d="M107.486 33.9395L107.942 33.3941C108.258 33.6536 108.588 33.8194 108.991 33.8194C109.307 33.8194 109.497 33.6945 109.497 33.4902V33.4806C109.497 33.286 109.377 33.1851 108.791 33.0362C108.084 32.856 107.628 32.6614 107.628 31.967V31.9574C107.628 31.3232 108.14 30.9027 108.856 30.9027C109.367 30.9027 109.803 31.0637 110.16 31.3472L109.76 31.9262C109.449 31.7124 109.143 31.5826 108.848 31.5826C108.552 31.5826 108.398 31.7172 108.398 31.8878V31.8974C108.398 32.128 108.547 32.2025 109.155 32.3562C109.866 32.5412 110.269 32.7959 110.269 33.4062V33.4158C110.269 34.1101 109.738 34.4993 108.981 34.4993C108.443 34.4993 107.908 34.3143 107.486 33.9395Z" fill="white"/>
<path d="M111.551 31.662H110.483V30.9532H113.391V31.662H112.323V34.4489H111.551V31.662Z" fill="white"/>
<path d="M113.784 30.9532H115.388C115.834 30.9532 116.179 31.0782 116.41 31.3088C116.606 31.5034 116.712 31.7773 116.712 32.1089V32.1161C116.712 32.6807 116.405 33.0362 115.959 33.1996L116.818 34.4489H115.914L115.161 33.3294H114.554V34.4489H113.782V30.9532H113.784ZM115.337 32.6494C115.713 32.6494 115.928 32.45 115.928 32.1545V32.1449C115.928 31.8158 115.697 31.6452 115.32 31.6452H114.554V32.6494H115.337Z" fill="white"/>
<path d="M118.412 30.9268H119.123L120.628 34.4489H119.82L119.499 33.6657H118.016L117.696 34.4489H116.909L118.412 30.9268ZM119.224 32.9857L118.759 31.8517L118.293 32.9857H119.224Z" fill="white"/>
<path d="M120.968 30.9532H122.337C123.439 30.9532 124.201 31.7076 124.201 32.6927V32.7023C124.201 33.6873 123.439 34.4513 122.337 34.4513H120.968V30.9532ZM122.337 33.7546C122.969 33.7546 123.396 33.3294 123.396 32.7095V32.6999C123.396 32.08 122.969 31.6452 122.337 31.6452H121.742V33.7522H122.337V33.7546Z" fill="white"/>
<path d="M124.534 32.7095V32.6999C124.534 31.7052 125.32 30.8907 126.405 30.8907C127.488 30.8907 128.264 31.6956 128.264 32.6878V32.6975C128.264 33.6921 127.478 34.5066 126.393 34.5066C125.31 34.509 124.534 33.7041 124.534 32.7095ZM127.456 32.7095V32.6999C127.456 32.0992 127.015 31.6019 126.393 31.6019C125.771 31.6019 125.339 32.092 125.339 32.6903V32.6999C125.339 33.2981 125.781 33.7978 126.403 33.7978C127.025 33.8002 127.456 33.3101 127.456 32.7095Z" fill="white"/>
<path d="M128.751 30.9532H130.355C130.801 30.9532 131.146 31.0782 131.377 31.3088C131.572 31.5034 131.679 31.7773 131.679 32.1089V32.1161C131.679 32.6807 131.372 33.0362 130.926 33.1996L131.785 34.4489H130.883L130.13 33.3294H129.523V34.4489H128.751V30.9532ZM130.304 32.6494C130.68 32.6494 130.895 32.45 130.895 32.1545V32.1449C130.895 31.8158 130.663 31.6452 130.287 31.6452H129.52V32.6494H130.304Z" fill="white"/>
<path d="M133.378 30.9268H134.09L135.594 34.4489H134.787L134.466 33.6657H132.983L132.662 34.4489H131.876L133.378 30.9268ZM134.191 32.9857L133.726 31.8517L133.26 32.9857H134.191Z" fill="white"/>
<path d="M137.239 30.9532H138.608C139.71 30.9532 140.472 31.7076 140.472 32.6927V32.7023C140.472 33.6873 139.71 34.4513 138.608 34.4513H137.239V30.9532ZM138.608 33.7546C139.24 33.7546 139.667 33.3294 139.667 32.7095V32.6999C139.667 32.08 139.24 31.6452 138.608 31.6452H138.013V33.7522H138.608V33.7546Z" fill="white"/>
<path d="M140.96 30.9532H143.607V31.6356H141.726V32.3443H143.381V33.029H141.726V33.7642H143.631V34.4489H140.96V30.9532Z" fill="white"/>
<path d="M145.423 30.9532H148.095V31.6524H146.194V32.3972H147.868V33.0963H146.194V34.4489H145.423V30.9532Z" fill="white"/>
<path d="M148.355 32.7095V32.6999C148.355 31.7052 149.141 30.8907 150.226 30.8907C151.309 30.8907 152.085 31.6956 152.085 32.6878V32.6975C152.085 33.6921 151.299 34.5066 150.214 34.5066C149.131 34.509 148.355 33.7041 148.355 32.7095ZM151.277 32.7095V32.6999C151.277 32.0992 150.836 31.6019 150.214 31.6019C149.592 31.6019 149.16 32.092 149.16 32.6903V32.6999C149.16 33.2981 149.602 33.7978 150.224 33.7978C150.846 33.8002 151.277 33.3101 151.277 32.7095Z" fill="white"/>
<path d="M152.572 30.9532H153.284L154.928 33.1059V30.9532H155.69V34.4489H155.034L153.334 32.2266V34.4489H152.572V30.9532Z" fill="white"/>
<path d="M156.332 30.9532H157.701C158.803 30.9532 159.565 31.7076 159.565 32.6927V32.7023C159.565 33.6873 158.803 34.4513 157.701 34.4513H156.332V30.9532ZM157.701 33.7546C158.333 33.7546 158.76 33.3294 158.76 32.7095V32.6999C158.76 32.08 158.333 31.6452 157.701 31.6452H157.106V33.7522H157.701V33.7546Z" fill="white"/>
<path d="M159.898 32.7095V32.6999C159.898 31.7052 160.684 30.8907 161.769 30.8907C162.852 30.8907 163.628 31.6956 163.628 32.6878V32.6975C163.628 33.6921 162.842 34.5066 161.757 34.5066C160.672 34.5066 159.898 33.7041 159.898 32.7095ZM162.82 32.7095V32.6999C162.82 32.0992 162.379 31.6019 161.757 31.6019C161.135 31.6019 160.703 32.092 160.703 32.6903V32.6999C160.703 33.2981 161.144 33.7978 161.767 33.7978C162.389 33.8002 162.82 33.3101 162.82 32.7095Z" fill="white"/>
<path d="M163.874 33.9395L164.33 33.3941C164.646 33.6536 164.976 33.8194 165.379 33.8194C165.695 33.8194 165.885 33.6945 165.885 33.4902V33.4806C165.885 33.286 165.764 33.1851 165.179 33.0362C164.472 32.856 164.016 32.6614 164.016 31.967V31.9574C164.016 31.3232 164.527 30.9027 165.244 30.9027C165.755 30.9027 166.191 31.0637 166.548 31.3472L166.148 31.9262C165.837 31.7124 165.531 31.5826 165.236 31.5826C164.94 31.5826 164.785 31.7172 164.785 31.8878V31.8974C164.785 32.128 164.935 32.2025 165.543 32.3562C166.254 32.5412 166.657 32.7959 166.657 33.4062V33.4158C166.657 34.1101 166.126 34.4993 165.369 34.4993C164.831 34.4993 164.294 34.3143 163.874 33.9395Z" fill="white"/>
<path d="M168.053 33.9395L168.508 33.399C168.824 33.656 169.155 33.8194 169.555 33.8194C169.871 33.8194 170.061 33.6945 170.061 33.4927V33.4831C170.061 33.2909 169.941 33.19 169.357 33.041C168.653 32.8632 168.197 32.6686 168.197 31.9815V31.9719C168.197 31.3424 168.709 30.9268 169.422 30.9268C169.934 30.9268 170.368 31.0853 170.722 31.3688L170.322 31.943C170.011 31.7292 169.707 31.6019 169.41 31.6019C169.114 31.6019 168.959 31.7364 168.959 31.9046V31.9142C168.959 32.1424 169.109 32.2169 169.714 32.3707C170.425 32.5533 170.823 32.8055 170.823 33.411V33.4206C170.823 34.1101 170.293 34.4969 169.538 34.4969C169.01 34.4945 168.475 34.3119 168.053 33.9395Z" fill="white"/>
<path d="M171.385 33.6512H172.195V34.4441H171.385V33.6512Z" fill="white"/>
<path d="M174.124 30.9508H174.836L176.336 34.4441H175.53L175.209 33.6657H173.729L173.408 34.4441H172.622L174.124 30.9508ZM174.935 32.993L174.469 31.8686L174.004 32.993H174.935Z" fill="white"/>
<path d="M176.765 33.6512H177.575V34.4441H176.765V33.6512Z" fill="white"/>
</svg>
