<svg width="17" height="17" viewBox="0 0 17 17" fill="none" xmlns="http://www.w3.org/2000/svg">
<path d="M8.47998 1.83337C4.80664 1.83337 1.81331 4.82671 1.81331 8.50004C1.81331 12.1734 4.80664 15.1667 8.47998 15.1667C12.1533 15.1667 15.1466 12.1734 15.1466 8.50004C15.1466 4.82671 12.1533 1.83337 8.47998 1.83337ZM11.6666 6.96671L7.88664 10.7467C7.79331 10.84 7.66664 10.8934 7.53331 10.8934C7.39998 10.8934 7.27331 10.84 7.17998 10.7467L5.29331 8.86004C5.09998 8.66671 5.09998 8.34671 5.29331 8.15337C5.48664 7.96004 5.80664 7.96004 5.99998 8.15337L7.53331 9.68671L10.96 6.26004C11.1533 6.06671 11.4733 6.06671 11.6666 6.26004C11.86 6.45337 11.86 6.76671 11.6666 6.96671Z" fill="#12AC59"/>
</svg>
