<svg width="20" height="21" viewBox="0 0 20 21" fill="none" xmlns="http://www.w3.org/2000/svg">
<path fill-rule="evenodd" clip-rule="evenodd" d="M9.47732 0.336356C9.81962 0.243676 10.1804 0.243676 10.5227 0.336356C10.9201 0.443946 11.2546 0.706604 11.5216 0.916236C11.5471 0.93625 11.572 0.955781 11.5963 0.974647L18.3786 6.24977C18.4047 6.27008 18.4306 6.29019 18.4563 6.31013C18.8329 6.60241 19.1647 6.85991 19.412 7.19421C19.629 7.48759 19.7906 7.8181 19.889 8.1695C20.0011 8.56992 20.0006 8.98993 20.0001 9.46667C20.0001 9.4992 20 9.53199 20 9.56505V16.8386C20 17.3657 20.0001 17.8204 19.9694 18.195C19.9371 18.5904 19.8658 18.9836 19.673 19.362C19.3854 19.9264 18.9265 20.3854 18.362 20.673C17.9836 20.8658 17.5904 20.9371 17.195 20.9694C16.8205 21 16.3657 21 15.8386 21H4.16145C3.63431 21 3.17956 21 2.80499 20.9694C2.40964 20.9371 2.01643 20.8658 1.63805 20.673C1.07356 20.3854 0.614617 19.9264 0.326998 19.362C0.134204 18.9836 0.0628878 18.5904 0.0305869 18.195C-1.69259e-05 17.8204 -1.42779e-06 17.3657 1.64536e-05 16.8385L1.74073e-05 9.56505C1.74073e-05 9.53199 -1.79979e-05 9.49919 -5.31646e-05 9.46667C-0.000568387 8.98993 -0.00102222 8.56992 0.111058 8.1695C0.20942 7.8181 0.371066 7.48759 0.588058 7.19421C0.835317 6.85991 1.16713 6.6024 1.54377 6.31012C1.56946 6.29018 1.59537 6.27007 1.62147 6.24977L8.40377 0.974646C8.42803 0.95578 8.45291 0.936249 8.4784 0.916235C8.74541 0.706603 9.07995 0.443946 9.47732 0.336356ZM9.99272 2.28153C9.91756 2.33174 9.81856 2.40798 9.63165 2.55335L2.84935 7.82848C2.35127 8.21587 2.25852 8.29901 2.19603 8.3835C2.1237 8.4813 2.06982 8.59147 2.03703 8.7086C2.0087 8.8098 2.00002 8.93406 2.00002 9.56505V16.8C2.00002 17.3765 2.0008 17.7488 2.02394 18.0321C2.04614 18.3038 2.08382 18.4045 2.10901 18.454C2.20488 18.6421 2.35787 18.7951 2.54603 18.891C2.59547 18.9162 2.69619 18.9539 2.96785 18.9761C3.25119 18.9992 3.62346 19 4.20002 19H15.8C16.3766 19 16.7488 18.9992 17.0322 18.9761C17.3038 18.9539 17.4046 18.9162 17.454 18.891C17.6422 18.7951 17.7951 18.6421 17.891 18.454C17.9162 18.4045 17.9539 18.3038 17.9761 18.0321C17.9992 17.7488 18 17.3765 18 16.8V9.56505C18 8.93406 17.9913 8.8098 17.963 8.7086C17.9302 8.59146 17.8763 8.4813 17.804 8.3835C17.7415 8.29901 17.6488 8.21587 17.1507 7.82848L10.3684 2.55335C10.1815 2.40798 10.0825 2.33174 10.0073 2.28153C10.0048 2.27983 10.0023 2.27822 10 2.27669C9.9977 2.27822 9.99527 2.27983 9.99272 2.28153ZM5.00002 16C5.00002 15.4477 5.44773 15 6.00002 15H14C14.5523 15 15 15.4477 15 16C15 16.5523 14.5523 17 14 17H6.00002C5.44773 17 5.00002 16.5523 5.00002 16Z" fill="white"/>
</svg>
