<svg width="22" height="22" viewBox="0 0 22 22" fill="none" xmlns="http://www.w3.org/2000/svg">
<path d="M13.9701 20.4143H13.8509C9.78089 20.4143 7.81922 18.8101 7.48005 15.2168C7.44339 14.8409 7.71839 14.5018 8.10339 14.4651C8.47005 14.4284 8.81839 14.7126 8.85505 15.0884C9.12089 17.9668 10.4776 19.0393 13.8601 19.0393H13.9792C17.7101 19.0393 19.0301 17.7193 19.0301 13.9884V8.01177C19.0301 4.28094 17.7101 2.96094 13.9792 2.96094H13.8601C10.4592 2.96094 9.10255 4.05177 8.85505 6.9851C8.80922 7.36094 8.48839 7.6451 8.10339 7.60844C7.71839 7.58094 7.44339 7.24177 7.47089 6.86594C7.78255 3.2176 9.75339 1.58594 13.8509 1.58594H13.9701C18.4709 1.58594 20.3959 3.51094 20.3959 8.01177V13.9884C20.3959 18.4893 18.4709 20.4143 13.9701 20.4143Z" fill="#1164E7"/>
<path d="M13.75 11.6875H3.31836C2.94253 11.6875 2.63086 11.3758 2.63086 11C2.63086 10.6242 2.94253 10.3125 3.31836 10.3125H13.75C14.1259 10.3125 14.4375 10.6242 14.4375 11C14.4375 11.3758 14.1259 11.6875 13.75 11.6875Z" fill="#1164E7"/>
<path d="M5.36249 14.7583C5.18832 14.7583 5.01415 14.6941 4.87665 14.5566L1.80582 11.4858C1.53999 11.2199 1.53999 10.7799 1.80582 10.5141L4.87665 7.44327C5.14249 7.17744 5.58249 7.17744 5.84832 7.44327C6.11415 7.7091 6.11415 8.14911 5.84832 8.41494L3.26332 10.9999L5.84832 13.5849C6.11415 13.8508 6.11415 14.2908 5.84832 14.5566C5.71999 14.6941 5.53665 14.7583 5.36249 14.7583Z" fill="#1164E7"/>
</svg>
