<svg width="52" height="53" viewBox="0 0 52 53" fill="none" xmlns="http://www.w3.org/2000/svg">
<path d="M45.5 17.291H6.5C5.61167 17.291 4.875 16.5543 4.875 15.666C4.875 14.7777 5.61167 14.041 6.5 14.041H45.5C46.3883 14.041 47.125 14.7777 47.125 15.666C47.125 16.5543 46.3883 17.291 45.5 17.291Z" fill="#0C1438"/>
<path d="M45.5 28.125H6.5C5.61167 28.125 4.875 27.3883 4.875 26.5C4.875 25.6117 5.61167 24.875 6.5 24.875H45.5C46.3883 24.875 47.125 25.6117 47.125 26.5C47.125 27.3883 46.3883 28.125 45.5 28.125Z" fill="#0C1438"/>
<path d="M45.5 38.959H6.5C5.61167 38.959 4.875 38.2223 4.875 37.334C4.875 36.4457 5.61167 35.709 6.5 35.709H45.5C46.3883 35.709 47.125 36.4457 47.125 37.334C47.125 38.2223 46.3883 38.959 45.5 38.959Z" fill="#0C1438"/>
</svg>
