<svg width="35" height="35" viewBox="0 0 35 35" fill="none" xmlns="http://www.w3.org/2000/svg">
<path fill-rule="evenodd" clip-rule="evenodd" d="M16.5852 5.8007C14.594 5.8007 12.9797 7.42385 12.9797 9.42609C12.9797 11.4283 14.594 13.0515 16.5852 13.0515C18.3575 13.0515 19.8311 11.7657 20.1338 10.0712C20.1385 9.98457 20.1507 9.89992 20.1699 9.81796C20.1836 9.68924 20.1907 9.55849 20.1907 9.42609C20.1907 7.42385 18.5765 5.8007 16.5852 5.8007ZM23.0039 8.45625C22.538 5.31216 19.8417 2.90039 16.5852 2.90039C13.001 2.90039 10.0954 5.82205 10.0954 9.42609C10.0954 9.77933 10.1233 10.126 10.177 10.464C7.89322 12.0325 6.28077 14.5216 5.87093 17.402H5.76878C4.97228 17.402 4.32659 16.7527 4.32659 15.9518C4.32659 15.4169 4.61389 14.9477 5.04873 14.6948C5.73818 14.2937 5.97378 13.4066 5.57496 12.7134C5.17613 12.0201 4.2939 11.7832 3.60444 12.1842C2.31499 12.9343 1.4422 14.3397 1.4422 15.9518C1.4422 18.3545 3.37927 20.3023 5.76878 20.3023H5.87104C6.18248 22.4894 7.18767 24.4527 8.65306 25.9564L8.65306 29.3268C8.65299 29.4995 8.65291 29.7058 8.66768 29.8876C8.68479 30.0981 8.72869 30.3998 8.88885 30.7158C9.09625 31.1251 9.42719 31.4579 9.83424 31.6664C10.1486 31.8275 10.4485 31.8716 10.658 31.8888C10.8387 31.9037 11.0438 31.9036 11.2156 31.9035C11.2269 31.9035 11.238 31.9035 11.249 31.9035H13.9892C14.0002 31.9035 14.0113 31.9035 14.0226 31.9035C14.1943 31.9036 14.3995 31.9037 14.5802 31.8888C14.7897 31.8716 15.0896 31.8275 15.4039 31.6664C15.811 31.4579 16.1419 31.1251 16.3493 30.7158C16.5095 30.3998 16.5534 30.0981 16.5705 29.8876C16.5853 29.7058 16.5852 29.4995 16.5851 29.3268L16.5851 29.0032H18.0273L18.0273 29.3268C18.0272 29.4995 18.0272 29.7058 18.0419 29.8876C18.059 30.0981 18.1029 30.3998 18.2631 30.7158C18.4705 31.1251 18.8014 31.4579 19.2085 31.6664C19.5228 31.8275 19.8228 31.8716 20.0322 31.8888C20.2129 31.9037 20.4181 31.9036 20.5899 31.9035C20.6012 31.9035 20.6123 31.9035 20.6233 31.9035H23.3635C23.3745 31.9035 23.3856 31.9035 23.3969 31.9035C23.5687 31.9036 23.7739 31.9037 23.9546 31.8888C24.164 31.8716 24.464 31.8275 24.7783 31.6664C25.1854 31.4579 25.5163 31.1251 25.7237 30.7158C25.8838 30.3998 25.9278 30.0981 25.9449 29.8876C25.9596 29.7058 25.9596 29.4995 25.9595 29.3268C25.9595 29.3155 25.9595 29.3043 25.9595 29.2932V28.026C27.5549 27.2641 28.9184 26.095 29.9186 24.6527L30.6079 24.6527C30.7796 24.6528 30.9848 24.6529 31.1656 24.638C31.375 24.6208 31.6749 24.5767 31.9893 24.4157C32.3963 24.2071 32.7273 23.8743 32.9347 23.465C33.0948 23.149 33.1387 22.8474 33.1558 22.6368C33.1706 22.455 33.1705 22.2488 33.1705 22.076C33.1705 22.0647 33.1704 22.0535 33.1704 22.0425L33.1705 17.0593C33.1705 16.8949 33.1706 16.6984 33.1572 16.5251C33.1416 16.3247 33.1019 16.0373 32.9562 15.733M11.3107 13.2291C12.4886 14.8779 14.4122 15.9518 16.5852 15.9518C19.4304 15.9518 21.8479 14.1109 22.7239 11.549C22.7961 11.5326 22.8597 11.5142 22.894 11.5042C22.8983 11.503 22.9021 11.5019 22.9055 11.5009L25.9595 10.6235V11.8481C25.9595 11.8589 25.9594 11.8713 25.9593 11.8854C25.9584 12.0182 25.9565 12.2896 26.0187 12.5515C26.0725 12.778 26.1547 12.9788 26.2752 13.1777C26.4151 13.4087 26.619 13.6124 26.7216 13.7149C26.733 13.7263 26.7431 13.7364 26.7518 13.7452C27.3415 14.3428 27.8279 15.0423 28.1827 15.8141L28.1926 15.8357C28.2501 15.9608 28.3137 16.0992 28.3745 16.2157C28.4386 16.3383 28.5483 16.5347 28.725 16.7223C28.9747 16.9874 29.2608 17.1714 29.6049 17.288C29.839 17.3674 30.0885 17.3926 30.2861 17.4V21.7524H29.7939C29.7803 21.7524 29.7644 21.7523 29.7466 21.7521C29.5795 21.7506 29.2383 21.7476 28.9188 21.8438C28.6429 21.9268 28.4054 22.0526 28.1812 22.2344C27.9205 22.4458 27.7176 22.749 27.6149 22.9024C27.6033 22.9196 27.5931 22.9349 27.5841 22.948C26.8536 24.0187 25.845 24.8822 24.6652 25.4329L24.6426 25.4435C24.5126 25.5042 24.3687 25.5713 24.2477 25.6359C24.12 25.704 23.9162 25.8208 23.7239 26.0103C23.4823 26.2485 23.3127 26.5158 23.1995 26.8365C23.0684 27.2083 23.0726 27.6191 23.0747 27.8206C23.0749 27.8424 23.0751 27.8618 23.0751 27.8784V29.0032H20.9117L20.9117 28.6796C20.9118 28.5069 20.9119 28.3006 20.8971 28.1189C20.88 27.9083 20.8361 27.6066 20.6759 27.2906C20.4685 26.8813 20.1376 26.5485 19.7305 26.34C19.4162 26.1789 19.1162 26.1348 18.9068 26.1176C18.7261 26.1027 18.5209 26.1028 18.3491 26.1029C18.3378 26.1029 18.3267 26.1029 18.3158 26.1029H16.2967C16.2857 26.1029 16.2746 26.1029 16.2633 26.1029C16.0915 26.1028 15.8864 26.1027 15.7056 26.1176C15.4962 26.1348 15.1962 26.1789 14.8819 26.34C14.4749 26.5485 14.1439 26.8813 13.9365 27.2906C13.7764 27.6066 13.7325 27.9083 13.7154 28.1189C13.7006 28.3006 13.7007 28.5069 13.7007 28.6796L13.7007 29.0032H11.5374V25.8561C11.5374 25.8454 11.5375 25.8329 11.5376 25.8189C11.5386 25.6861 11.5405 25.4146 11.4783 25.1527C11.4245 24.9262 11.3422 24.7254 11.2217 24.5265C11.0818 24.2955 10.878 24.0919 10.7753 23.9893C10.7639 23.9779 10.7538 23.9678 10.7451 23.959C9.4504 22.6469 8.65306 20.8446 8.65306 18.8521C8.65306 16.5853 9.68725 14.5599 11.3107 13.2291ZM23.0039 8.45625L25.5348 7.72917C25.5477 7.72546 25.5607 7.72172 25.5738 7.71794C25.7885 7.65619 26.0315 7.5863 26.2458 7.54498C26.4825 7.49936 26.8547 7.45087 27.271 7.56962C27.79 7.71768 28.2353 8.05541 28.5195 8.51655C28.7474 8.88641 28.8033 9.25958 28.8247 9.50094C28.844 9.71954 28.8439 9.97369 28.8439 10.1982C28.8439 10.2119 28.8439 10.2255 28.8439 10.239V11.7478C29.6231 12.5475 30.2724 13.4769 30.7565 14.5018C30.888 14.5024 31.0294 14.5049 31.1581 14.515C31.3574 14.5306 31.6433 14.5705 31.9459 14.7171C32.3873 14.9309 32.7435 15.2891 32.9562 15.733" fill="#14205B"/>
</svg>
