<svg width="34" height="34" viewBox="0 0 34 34" fill="none" xmlns="http://www.w3.org/2000/svg">
<path d="M9.07081 29.5009H13.2068M21.4789 29.5009H25.6149M24.9256 9.44211V20.509M4.93478 9.0271L4.93478 20.924C4.93478 22.4735 4.93478 23.2483 5.23532 23.8401C5.49967 24.3607 5.92149 24.784 6.44032 25.0492C7.03015 25.3508 7.80228 25.3508 9.34654 25.3508L25.3392 25.3508C26.8834 25.3508 27.6555 25.3508 28.2454 25.0492C28.7642 24.784 29.186 24.3607 29.4504 23.8401C29.7509 23.2483 29.7509 22.4735 29.7509 20.924V9.0271C29.7509 7.47759 29.7509 6.70284 29.4504 6.111C29.186 5.59041 28.7642 5.16715 28.2454 4.9019C27.6555 4.60034 26.8834 4.60034 25.3392 4.60034L9.34654 4.60034C7.80228 4.60034 7.03015 4.60034 6.44032 4.9019C5.92149 5.16715 5.49967 5.59041 5.23532 6.111C4.93478 6.70283 4.93478 7.47759 4.93478 9.0271ZM16.6535 14.9756C16.6535 16.8856 15.1104 18.434 13.2068 18.434C11.3033 18.434 9.76014 16.8856 9.76014 14.9756C9.76014 13.0655 11.3033 11.5172 13.2068 11.5172C15.1104 11.5172 16.6535 13.0655 16.6535 14.9756Z" stroke="#14205B" stroke-width="1.99261" stroke-linecap="round" stroke-linejoin="round"/>
</svg>
