<svg width="23" height="25" viewBox="0 0 23 25" fill="none" xmlns="http://www.w3.org/2000/svg">
<path d="M21.2022 23.5454C21.2022 21.8506 21.2022 21.0032 20.993 20.3137C20.5221 18.7612 19.3072 17.5463 17.7547 17.0754C17.0651 16.8662 16.2177 16.8662 14.523 16.8662H8.45095C6.75617 16.8662 5.90878 16.8662 5.21925 17.0754C3.66675 17.5463 2.45184 18.7612 1.9809 20.3137C1.77173 21.0032 1.77173 21.8506 1.77173 23.5454M16.9518 7.15097C16.9518 10.1691 14.5051 12.6158 11.4869 12.6158C8.46882 12.6158 6.02214 10.1691 6.02214 7.15097C6.02214 4.13284 8.46882 1.68616 11.4869 1.68616C14.5051 1.68616 16.9518 4.13284 16.9518 7.15097Z" stroke="#14205B" stroke-width="2.25532" stroke-linecap="round" stroke-linejoin="round"/>
</svg>
