<svg width="31" height="30" viewBox="0 0 31 30" fill="none" xmlns="http://www.w3.org/2000/svg">
<path d="M25.2022 25.5455C25.2022 23.8507 25.2022 23.0034 24.993 22.3138C24.5221 20.7613 23.3072 19.5464 21.7547 19.0755C21.0651 18.8663 20.2177 18.8663 18.523 18.8663H12.4509C10.7562 18.8663 9.90878 18.8663 9.21925 19.0755C7.66675 19.5464 6.45184 20.7613 5.9809 22.3138C5.77173 23.0034 5.77173 23.8507 5.77173 25.5455M20.9518 9.15109C20.9518 12.1692 18.5051 14.6159 15.4869 14.6159C12.4688 14.6159 10.0221 12.1692 10.0221 9.15109C10.0221 6.13296 12.4688 3.68628 15.4869 3.68628C18.5051 3.68628 20.9518 6.13296 20.9518 9.15109Z" stroke="#14205B" stroke-width="2.25532" stroke-linecap="round" stroke-linejoin="round"/>
</svg>
