<svg width="30" height="29" viewBox="0 0 30 29" fill="none" xmlns="http://www.w3.org/2000/svg">
<path d="M6.43762 12.7237C6.20241 12.7237 5.95482 12.6326 5.78151 12.4732C5.52154 12.2228 5.43488 11.8585 5.58344 11.5398L7.88602 6.48559C7.93554 6.38314 7.9603 6.31484 7.99744 6.25792C9.82961 2.37621 12.1693 1.43139 16.3041 2.88846C16.5393 2.96814 16.725 3.13889 16.824 3.35517C16.9231 3.57146 16.9231 3.81051 16.824 4.02679L13.1968 11.7675C13.0483 12.0862 12.714 12.2797 12.3426 12.2797H8.81449C8.10885 12.2797 7.44036 12.4049 6.79663 12.6554C6.68521 12.7009 6.56142 12.7237 6.43762 12.7237ZM13.1349 3.94711C11.5999 3.94711 10.659 4.86916 9.68105 6.96369C9.66867 6.99784 9.64391 7.03199 9.63153 7.06614L8.00982 10.6064C8.28217 10.5836 8.54214 10.5722 8.81449 10.5722H11.7237L14.7071 4.19754C14.1253 4.02679 13.6054 3.94711 13.1349 3.94711Z" fill="#1D2E65"/>
<path d="M22.6419 12.5074C22.5552 12.5074 22.4562 12.496 22.3695 12.4732C21.8991 12.348 21.4039 12.2797 20.884 12.2797H12.3421C12.0326 12.2797 11.7355 12.1317 11.5622 11.8927C11.4013 11.6536 11.3641 11.3463 11.4879 11.0845L15.078 3.42347C15.2637 3.01367 15.8084 2.72909 16.2664 2.87707C16.415 2.9226 16.5512 2.97952 16.6997 3.03644L19.6213 4.16339C21.3296 4.81224 22.4686 5.49524 23.2113 6.31484C23.3599 6.4742 23.4837 6.64495 23.6075 6.82709C23.7436 7.0206 23.8674 7.24827 23.9541 7.48732C23.9912 7.567 24.0531 7.71499 24.0903 7.87435C24.4369 8.95577 24.2636 10.2762 23.5208 11.9837C23.3599 12.3025 23.0133 12.5074 22.6419 12.5074ZM13.7534 10.5722H20.8964C21.2925 10.5722 21.6763 10.6064 22.06 10.6633C22.4067 9.67292 22.4809 8.91024 22.2829 8.29554C22.2581 8.19309 22.2333 8.14755 22.221 8.10202C22.1467 7.91989 22.0972 7.81744 22.0353 7.72637C21.9486 7.60115 21.8867 7.4987 21.7877 7.39625C21.2554 6.80432 20.3145 6.25792 18.9033 5.7229L16.4645 4.78947L13.7534 10.5722Z" fill="#1D2E65"/>
<path d="M19.683 26.7138H10.027C9.68035 26.7138 9.35849 26.6911 9.03662 26.6569C4.69141 26.3951 2.21551 24.1071 1.9184 20.066C1.88127 19.8155 1.85651 19.5082 1.85651 19.2008V16.9811C1.85651 14.4198 3.51536 12.109 6.07792 11.0845C6.95686 10.743 7.87295 10.5723 8.82617 10.5723H20.9086C21.6142 10.5723 22.2951 10.6633 22.9264 10.8455C25.8356 11.6537 27.8782 14.1808 27.8782 16.9811V19.2008C27.8782 19.4513 27.8658 19.6903 27.8535 19.918C27.5811 24.3689 24.7586 26.7138 19.683 26.7138ZM8.81379 12.2798C8.10816 12.2798 7.43966 12.405 6.79593 12.6554C4.91424 13.4067 3.70105 15.1028 3.70105 16.9811V19.2008C3.70105 19.4399 3.72581 19.6789 3.75057 19.9066C3.98578 23.1509 5.71891 24.7445 9.19755 24.9608C9.50704 24.995 9.75463 25.0177 10.0146 25.0177H19.6706C23.7558 25.0177 25.7613 23.3671 25.9594 19.8383C25.9718 19.6334 25.9842 19.4285 25.9842 19.2008V16.9811C25.9842 14.9207 24.4862 13.0766 22.357 12.4733C21.8865 12.3481 21.3914 12.2798 20.8714 12.2798H8.81379Z" fill="#1D2E65"/>
<path d="M2.77307 17.8346C2.26551 17.8346 1.8446 17.4476 1.8446 16.9809V13.6456C1.8446 10.0598 4.60523 6.96356 8.41812 6.28056C8.75237 6.22364 9.09899 6.33748 9.32182 6.57653C9.53228 6.81558 9.59417 7.15708 9.458 7.44166L7.29159 12.1999C7.19255 12.4048 7.01924 12.5642 6.80879 12.6552C4.9271 13.4065 3.71391 15.1026 3.71391 16.9809C3.70153 17.4476 3.29301 17.8346 2.77307 17.8346ZM6.93258 8.57999C5.348 9.39959 4.19671 10.8339 3.8377 12.5072C4.3824 11.995 5.01376 11.5624 5.73177 11.2437L6.93258 8.57999Z" fill="#1D2E65"/>
<path d="M26.9377 17.8348C26.4302 17.8348 26.0093 17.4477 26.0093 16.981C26.0093 14.9206 24.5113 13.0765 22.3821 12.4732C22.1345 12.4049 21.924 12.2455 21.8126 12.0293C21.7012 11.813 21.6888 11.5625 21.7879 11.3463C22.3697 10.0144 22.5182 9.04683 22.283 8.29553C22.2583 8.19308 22.2335 8.14755 22.2211 8.10201C22.0602 7.7719 22.1469 7.38486 22.4316 7.13443C22.7163 6.884 23.1496 6.82708 23.4962 6.99783C26.195 8.29553 27.8662 10.8454 27.8662 13.6457V16.981C27.8662 17.4477 27.4453 17.8348 26.9377 17.8348ZM23.8305 11.1641C24.6104 11.4942 25.3036 11.961 25.8855 12.5187C25.6503 11.4032 25.0684 10.3901 24.2142 9.59323C24.1523 10.0713 24.0285 10.595 23.8305 11.1641Z" fill="#1D2E65"/>
</svg>
