<svg width="32" height="31" viewBox="0 0 32 31" fill="none" xmlns="http://www.w3.org/2000/svg">
<path d="M23.0847 29.142H8.44915C5.27471 29.142 2.69946 26.5668 2.69946 23.3923V14.8124C2.69946 11.638 5.27471 9.06274 8.44915 9.06274H23.0847C26.2591 9.06274 28.8344 11.638 28.8344 14.8124V16.6483C28.8344 17.171 28.4009 17.6044 27.8782 17.6044H25.303C24.8568 17.6044 24.4488 17.7701 24.1556 18.0761L24.1429 18.0889C23.7859 18.4331 23.6202 18.9047 23.6584 19.3892C23.7349 20.2306 24.5381 20.9063 25.456 20.9063H27.8782C28.4009 20.9063 28.8344 21.3398 28.8344 21.8625V23.3796C28.8344 26.5667 26.2591 29.142 23.0847 29.142ZM8.44915 10.9751C6.33286 10.9751 4.61177 12.6961 4.61177 14.8124V23.3923C4.61177 25.5086 6.33286 27.2297 8.44915 27.2297H23.0847C25.201 27.2297 26.9221 25.5086 26.9221 23.3923V22.8314H25.456C23.5309 22.8314 21.8991 21.4035 21.7461 19.5677C21.6441 18.5223 22.0266 17.4897 22.7915 16.7375C23.4544 16.0618 24.3468 15.6921 25.303 15.6921H26.9221V14.8124C26.9221 12.6961 25.201 10.9751 23.0847 10.9751H8.44915Z" fill="#14205B"/>
<path d="M3.65562 16.916C3.13292 16.916 2.69946 16.4825 2.69946 15.9598V10.1337C2.69946 8.23417 3.89784 6.51302 5.66992 5.83734L15.7924 2.01271C16.8378 1.6175 17.998 1.7578 18.9031 2.39524C19.821 3.03267 20.3565 4.06531 20.3565 5.17445V10.019C20.3565 10.5417 19.923 10.9751 19.4003 10.9751C18.8776 10.9751 18.4442 10.5417 18.4442 10.019V5.17445C18.4442 4.69 18.2147 4.24378 17.8067 3.96331C17.3988 3.68283 16.9143 3.61908 16.4554 3.79757L6.33285 7.62219C5.30021 8.0174 4.59903 9.02459 4.59903 10.1337V15.9598C4.61177 16.4953 4.17832 16.916 3.65562 16.916Z" fill="#14205B"/>
<path d="M25.456 22.8314C23.531 22.8314 21.8991 21.4035 21.7461 19.5677C21.6442 18.5096 22.0266 17.477 22.7915 16.7248C23.4417 16.0618 24.3341 15.6921 25.2903 15.6921H27.942C29.2042 15.7304 30.1731 16.7247 30.1731 17.9486V20.5749C30.1731 21.7988 29.2042 22.7932 27.9803 22.8314H25.456ZM27.9165 17.6044H25.303C24.8568 17.6044 24.4489 17.7702 24.1557 18.0761C23.7859 18.4331 23.6075 18.9175 23.6585 19.402C23.7349 20.2434 24.5381 20.9191 25.456 20.9191H27.9548C28.1205 20.9191 28.2735 20.7662 28.2735 20.5749V17.9486C28.2735 17.7574 28.1205 17.6172 27.9165 17.6044Z" fill="#14205B"/>
<path d="M18.3167 16.3933H9.39256C8.86986 16.3933 8.4364 15.9598 8.4364 15.4371C8.4364 14.9144 8.86986 14.481 9.39256 14.481H18.3167C18.8394 14.481 19.2728 14.9144 19.2728 15.4371C19.2728 15.9598 18.8394 16.3933 18.3167 16.3933Z" fill="#14205B"/>
</svg>
